<mxfile host="app.diagrams.net" agent="Mozilla/5.0 (Windows NT 10.0; Win64; x64) AppleWebKit/537.36 (KHTML, like Gecko) Chrome/131.0.0.0 Safari/537.36" version="26.0.8">
  <diagram name="Page-1" id="0">
    <mxGraphModel dx="1044" dy="494" grid="1" gridSize="10" guides="1" tooltips="1" connect="1" arrows="1" fold="1" page="1" pageScale="1" pageWidth="827" pageHeight="1169" math="0" shadow="0">
      <root>
        <mxCell id="5piQsOcuY-1Kh9B8N4Zf-0" />
        <mxCell id="5piQsOcuY-1Kh9B8N4Zf-1" parent="5piQsOcuY-1Kh9B8N4Zf-0" />
        <mxCell id="nV89gUQUQQGB0Jo60qx6-3" value="Player&lt;div&gt;&lt;br&gt;&lt;/div&gt;" style="shape=umlActor;verticalLabelPosition=bottom;verticalAlign=top;html=1;outlineConnect=0;" parent="5piQsOcuY-1Kh9B8N4Zf-1" vertex="1">
          <mxGeometry x="570" y="140" width="30" height="60" as="geometry" />
        </mxCell>
        <mxCell id="nV89gUQUQQGB0Jo60qx6-4" value="Game" style="shape=umlActor;verticalLabelPosition=bottom;verticalAlign=top;html=1;outlineConnect=0;" parent="5piQsOcuY-1Kh9B8N4Zf-1" vertex="1">
          <mxGeometry x="130" y="140" width="30" height="60" as="geometry" />
        </mxCell>
        <mxCell id="nV89gUQUQQGB0Jo60qx6-9" value="Рухати персонажа" style="ellipse;whiteSpace=wrap;html=1;" parent="5piQsOcuY-1Kh9B8N4Zf-1" vertex="1">
          <mxGeometry x="640" y="30" width="140" height="70" as="geometry" />
        </mxCell>
        <mxCell id="nV89gUQUQQGB0Jo60qx6-10" value="Поїдати бонуси" style="ellipse;whiteSpace=wrap;html=1;" parent="5piQsOcuY-1Kh9B8N4Zf-1" vertex="1">
          <mxGeometry x="390" y="250" width="140" height="70" as="geometry" />
        </mxCell>
        <mxCell id="nV89gUQUQQGB0Jo60qx6-11" value="Уникати привидів" style="ellipse;whiteSpace=wrap;html=1;" parent="5piQsOcuY-1Kh9B8N4Zf-1" vertex="1">
          <mxGeometry x="440" y="20" width="140" height="70" as="geometry" />
        </mxCell>
        <mxCell id="nV89gUQUQQGB0Jo60qx6-12" value="Завершити гру (виграш чи програш)" style="ellipse;whiteSpace=wrap;html=1;" parent="5piQsOcuY-1Kh9B8N4Zf-1" vertex="1">
          <mxGeometry x="650" y="260" width="140" height="70" as="geometry" />
        </mxCell>
        <mxCell id="nV89gUQUQQGB0Jo60qx6-13" value="Обробка зіткнень з привидами" style="ellipse;whiteSpace=wrap;html=1;" parent="5piQsOcuY-1Kh9B8N4Zf-1" vertex="1">
          <mxGeometry x="20" y="20" width="140" height="70" as="geometry" />
        </mxCell>
        <mxCell id="nV89gUQUQQGB0Jo60qx6-14" value="Підрахунок очок і визначення результату гри" style="ellipse;whiteSpace=wrap;html=1;" parent="5piQsOcuY-1Kh9B8N4Zf-1" vertex="1">
          <mxGeometry x="20" y="250" width="140" height="70" as="geometry" />
        </mxCell>
        <mxCell id="nV89gUQUQQGB0Jo60qx6-15" value="&lt;br&gt;&lt;div&gt;Визначення подій (поїдання бонусів)&lt;/div&gt;" style="ellipse;whiteSpace=wrap;html=1;" parent="5piQsOcuY-1Kh9B8N4Zf-1" vertex="1">
          <mxGeometry x="210" y="230" width="140" height="70" as="geometry" />
        </mxCell>
        <mxCell id="nV89gUQUQQGB0Jo60qx6-16" value="Визначення руху персонажа" style="ellipse;whiteSpace=wrap;html=1;" parent="5piQsOcuY-1Kh9B8N4Zf-1" vertex="1">
          <mxGeometry x="190" y="10" width="140" height="70" as="geometry" />
        </mxCell>
        <mxCell id="nV89gUQUQQGB0Jo60qx6-19" value="" style="endArrow=classic;html=1;rounded=0;" parent="5piQsOcuY-1Kh9B8N4Zf-1" edge="1">
          <mxGeometry width="50" height="50" relative="1" as="geometry">
            <mxPoint x="610" y="140" as="sourcePoint" />
            <mxPoint x="660" y="90" as="targetPoint" />
          </mxGeometry>
        </mxCell>
        <mxCell id="nV89gUQUQQGB0Jo60qx6-20" value="" style="endArrow=classic;html=1;rounded=0;" parent="5piQsOcuY-1Kh9B8N4Zf-1" edge="1">
          <mxGeometry width="50" height="50" relative="1" as="geometry">
            <mxPoint x="160" y="120" as="sourcePoint" />
            <mxPoint x="210" y="70" as="targetPoint" />
          </mxGeometry>
        </mxCell>
        <mxCell id="nV89gUQUQQGB0Jo60qx6-21" value="" style="endArrow=classic;html=1;rounded=0;" parent="5piQsOcuY-1Kh9B8N4Zf-1" target="nV89gUQUQQGB0Jo60qx6-10" edge="1">
          <mxGeometry width="50" height="50" relative="1" as="geometry">
            <mxPoint x="530" y="220" as="sourcePoint" />
            <mxPoint x="570" y="140" as="targetPoint" />
          </mxGeometry>
        </mxCell>
        <mxCell id="nV89gUQUQQGB0Jo60qx6-22" value="" style="endArrow=classic;html=1;rounded=0;entryX=0.5;entryY=1;entryDx=0;entryDy=0;" parent="5piQsOcuY-1Kh9B8N4Zf-1" target="nV89gUQUQQGB0Jo60qx6-11" edge="1">
          <mxGeometry width="50" height="50" relative="1" as="geometry">
            <mxPoint x="560" y="130" as="sourcePoint" />
            <mxPoint x="550" y="100" as="targetPoint" />
          </mxGeometry>
        </mxCell>
        <mxCell id="nV89gUQUQQGB0Jo60qx6-23" value="" style="endArrow=classic;html=1;rounded=0;" parent="5piQsOcuY-1Kh9B8N4Zf-1" target="nV89gUQUQQGB0Jo60qx6-12" edge="1">
          <mxGeometry width="50" height="50" relative="1" as="geometry">
            <mxPoint x="610" y="210" as="sourcePoint" />
            <mxPoint x="660" y="160" as="targetPoint" />
          </mxGeometry>
        </mxCell>
        <mxCell id="nV89gUQUQQGB0Jo60qx6-24" value="" style="endArrow=classic;html=1;rounded=0;entryX=0.5;entryY=0;entryDx=0;entryDy=0;" parent="5piQsOcuY-1Kh9B8N4Zf-1" target="nV89gUQUQQGB0Jo60qx6-14" edge="1">
          <mxGeometry width="50" height="50" relative="1" as="geometry">
            <mxPoint x="120" y="210" as="sourcePoint" />
            <mxPoint x="115" y="150" as="targetPoint" />
          </mxGeometry>
        </mxCell>
        <mxCell id="nV89gUQUQQGB0Jo60qx6-25" value="" style="endArrow=classic;html=1;rounded=0;" parent="5piQsOcuY-1Kh9B8N4Zf-1" target="nV89gUQUQQGB0Jo60qx6-15" edge="1">
          <mxGeometry width="50" height="50" relative="1" as="geometry">
            <mxPoint x="190" y="200" as="sourcePoint" />
            <mxPoint x="240" y="150" as="targetPoint" />
          </mxGeometry>
        </mxCell>
        <mxCell id="nV89gUQUQQGB0Jo60qx6-26" value="" style="endArrow=classic;html=1;rounded=0;entryX=0.5;entryY=1;entryDx=0;entryDy=0;" parent="5piQsOcuY-1Kh9B8N4Zf-1" target="nV89gUQUQQGB0Jo60qx6-13" edge="1">
          <mxGeometry width="50" height="50" relative="1" as="geometry">
            <mxPoint x="120" y="120" as="sourcePoint" />
            <mxPoint x="100" y="100" as="targetPoint" />
          </mxGeometry>
        </mxCell>
        <mxCell id="nV89gUQUQQGB0Jo60qx6-30" value="" style="endArrow=classic;html=1;rounded=0;" parent="5piQsOcuY-1Kh9B8N4Zf-1" edge="1">
          <mxGeometry width="50" height="50" relative="1" as="geometry">
            <mxPoint x="560" y="170" as="sourcePoint" />
            <mxPoint x="170" y="170" as="targetPoint" />
          </mxGeometry>
        </mxCell>
        <mxCell id="nV89gUQUQQGB0Jo60qx6-31" value="Взаємодія через клавіатуру" style="text;html=1;align=center;verticalAlign=middle;resizable=0;points=[];autosize=1;strokeColor=none;fillColor=none;" parent="5piQsOcuY-1Kh9B8N4Zf-1" vertex="1">
          <mxGeometry x="280" y="148" width="180" height="30" as="geometry" />
        </mxCell>
        <mxCell id="JgzR4EuEWaY0TFpw7oFY-14" value="" style="edgeStyle=orthogonalEdgeStyle;rounded=0;orthogonalLoop=1;jettySize=auto;html=1;" edge="1" parent="5piQsOcuY-1Kh9B8N4Zf-1" source="lLy0GE4KPFu8VsCluHGw-0" target="lLy0GE4KPFu8VsCluHGw-3">
          <mxGeometry relative="1" as="geometry" />
        </mxCell>
        <mxCell id="lLy0GE4KPFu8VsCluHGw-0" value="" style="ellipse;fillColor=strokeColor;html=1;" parent="5piQsOcuY-1Kh9B8N4Zf-1" vertex="1">
          <mxGeometry x="330" y="420" width="30" height="30" as="geometry" />
        </mxCell>
        <mxCell id="JgzR4EuEWaY0TFpw7oFY-15" value="" style="edgeStyle=orthogonalEdgeStyle;rounded=0;orthogonalLoop=1;jettySize=auto;html=1;" edge="1" parent="5piQsOcuY-1Kh9B8N4Zf-1" source="lLy0GE4KPFu8VsCluHGw-3" target="lLy0GE4KPFu8VsCluHGw-8">
          <mxGeometry relative="1" as="geometry" />
        </mxCell>
        <mxCell id="lLy0GE4KPFu8VsCluHGw-3" value="&lt;span style=&quot;text-wrap-mode: nowrap;&quot;&gt;Початок гри&lt;/span&gt;" style="html=1;dashed=0;rounded=1;absoluteArcSize=1;arcSize=20;verticalAlign=middle;align=center;whiteSpace=wrap;" parent="5piQsOcuY-1Kh9B8N4Zf-1" vertex="1">
          <mxGeometry x="265" y="480" width="160" height="50" as="geometry" />
        </mxCell>
        <mxCell id="lLy0GE4KPFu8VsCluHGw-4" value="*" style="text;resizeWidth=0;resizeHeight=0;points=[];part=1;verticalAlign=middle;align=center;html=1;" parent="lLy0GE4KPFu8VsCluHGw-3" vertex="1">
          <mxGeometry x="1" y="0.5" width="20" height="20" relative="1" as="geometry">
            <mxPoint x="-20" y="-10" as="offset" />
          </mxGeometry>
        </mxCell>
        <mxCell id="JgzR4EuEWaY0TFpw7oFY-5" style="edgeStyle=orthogonalEdgeStyle;rounded=0;orthogonalLoop=1;jettySize=auto;html=1;entryX=0.902;entryY=0.462;entryDx=0;entryDy=0;entryPerimeter=0;" edge="1" parent="5piQsOcuY-1Kh9B8N4Zf-1" source="lLy0GE4KPFu8VsCluHGw-5" target="lLy0GE4KPFu8VsCluHGw-9">
          <mxGeometry relative="1" as="geometry">
            <mxPoint x="480" y="620" as="targetPoint" />
            <Array as="points">
              <mxPoint x="500" y="835" />
              <mxPoint x="500" y="624" />
            </Array>
          </mxGeometry>
        </mxCell>
        <mxCell id="JgzR4EuEWaY0TFpw7oFY-19" value="" style="edgeStyle=orthogonalEdgeStyle;rounded=0;orthogonalLoop=1;jettySize=auto;html=1;" edge="1" parent="5piQsOcuY-1Kh9B8N4Zf-1" source="lLy0GE4KPFu8VsCluHGw-5" target="JgzR4EuEWaY0TFpw7oFY-7">
          <mxGeometry relative="1" as="geometry" />
        </mxCell>
        <mxCell id="lLy0GE4KPFu8VsCluHGw-5" value="Чи PacMan зібрав бонус?" style="rhombus;" parent="5piQsOcuY-1Kh9B8N4Zf-1" vertex="1">
          <mxGeometry x="292.5" y="790" width="105" height="90" as="geometry" />
        </mxCell>
        <mxCell id="lLy0GE4KPFu8VsCluHGw-6" value="" style="ellipse;html=1;shape=endState;fillColor=strokeColor;" parent="5piQsOcuY-1Kh9B8N4Zf-1" vertex="1">
          <mxGeometry x="750" y="1110" width="30" height="30" as="geometry" />
        </mxCell>
        <mxCell id="JgzR4EuEWaY0TFpw7oFY-16" value="" style="edgeStyle=orthogonalEdgeStyle;rounded=0;orthogonalLoop=1;jettySize=auto;html=1;" edge="1" parent="5piQsOcuY-1Kh9B8N4Zf-1" source="lLy0GE4KPFu8VsCluHGw-8" target="lLy0GE4KPFu8VsCluHGw-10">
          <mxGeometry relative="1" as="geometry" />
        </mxCell>
        <mxCell id="lLy0GE4KPFu8VsCluHGw-8" value="&lt;span style=&quot;text-wrap-mode: nowrap;&quot;&gt;Обробка команд гравця (рух PacMan)&lt;/span&gt;" style="html=1;dashed=0;rounded=1;absoluteArcSize=1;arcSize=20;verticalAlign=middle;align=center;whiteSpace=wrap;" parent="5piQsOcuY-1Kh9B8N4Zf-1" vertex="1">
          <mxGeometry x="225" y="580" width="240" height="90" as="geometry" />
        </mxCell>
        <mxCell id="lLy0GE4KPFu8VsCluHGw-9" value="*" style="text;resizeWidth=0;resizeHeight=0;points=[];part=1;verticalAlign=middle;align=center;html=1;" parent="lLy0GE4KPFu8VsCluHGw-8" vertex="1">
          <mxGeometry x="1" y="0.5" width="20" height="20" relative="1" as="geometry">
            <mxPoint x="-20" y="-10" as="offset" />
          </mxGeometry>
        </mxCell>
        <mxCell id="JgzR4EuEWaY0TFpw7oFY-17" value="" style="edgeStyle=orthogonalEdgeStyle;rounded=0;orthogonalLoop=1;jettySize=auto;html=1;" edge="1" parent="5piQsOcuY-1Kh9B8N4Zf-1" source="lLy0GE4KPFu8VsCluHGw-10" target="lLy0GE4KPFu8VsCluHGw-5">
          <mxGeometry relative="1" as="geometry" />
        </mxCell>
        <mxCell id="lLy0GE4KPFu8VsCluHGw-10" value="&lt;span style=&quot;text-wrap-mode: nowrap;&quot;&gt;Рух привидів&lt;/span&gt;" style="html=1;dashed=0;rounded=1;absoluteArcSize=1;arcSize=20;verticalAlign=middle;align=center;whiteSpace=wrap;" parent="5piQsOcuY-1Kh9B8N4Zf-1" vertex="1">
          <mxGeometry x="265" y="710" width="160" height="50" as="geometry" />
        </mxCell>
        <mxCell id="lLy0GE4KPFu8VsCluHGw-11" value="*" style="text;resizeWidth=0;resizeHeight=0;points=[];part=1;verticalAlign=middle;align=center;html=1;" parent="lLy0GE4KPFu8VsCluHGw-10" vertex="1">
          <mxGeometry x="1" y="0.5" width="20" height="20" relative="1" as="geometry">
            <mxPoint x="-20" y="-10" as="offset" />
          </mxGeometry>
        </mxCell>
        <mxCell id="JgzR4EuEWaY0TFpw7oFY-25" style="edgeStyle=orthogonalEdgeStyle;rounded=0;orthogonalLoop=1;jettySize=auto;html=1;entryX=0.5;entryY=0;entryDx=0;entryDy=0;" edge="1" parent="5piQsOcuY-1Kh9B8N4Zf-1" source="lLy0GE4KPFu8VsCluHGw-12" target="lLy0GE4KPFu8VsCluHGw-6">
          <mxGeometry relative="1" as="geometry" />
        </mxCell>
        <mxCell id="lLy0GE4KPFu8VsCluHGw-12" value="&lt;span style=&quot;text-wrap-mode: nowrap;&quot;&gt;Завершення гри програшем&lt;/span&gt;" style="html=1;dashed=0;rounded=1;absoluteArcSize=1;arcSize=20;verticalAlign=middle;align=center;whiteSpace=wrap;" parent="5piQsOcuY-1Kh9B8N4Zf-1" vertex="1">
          <mxGeometry x="500" y="1020" width="160" height="50" as="geometry" />
        </mxCell>
        <mxCell id="lLy0GE4KPFu8VsCluHGw-13" value="*" style="text;resizeWidth=0;resizeHeight=0;points=[];part=1;verticalAlign=middle;align=center;html=1;" parent="lLy0GE4KPFu8VsCluHGw-12" vertex="1">
          <mxGeometry x="1" y="0.5" width="20" height="20" relative="1" as="geometry">
            <mxPoint x="-20" y="-10" as="offset" />
          </mxGeometry>
        </mxCell>
        <mxCell id="JgzR4EuEWaY0TFpw7oFY-22" value="" style="edgeStyle=orthogonalEdgeStyle;rounded=0;orthogonalLoop=1;jettySize=auto;html=1;" edge="1" parent="5piQsOcuY-1Kh9B8N4Zf-1" source="JgzR4EuEWaY0TFpw7oFY-7" target="JgzR4EuEWaY0TFpw7oFY-10">
          <mxGeometry relative="1" as="geometry" />
        </mxCell>
        <mxCell id="JgzR4EuEWaY0TFpw7oFY-7" value="&lt;span style=&quot;text-wrap-mode: nowrap;&quot;&gt;Оновлюється рахунок&lt;/span&gt;" style="html=1;dashed=0;rounded=1;absoluteArcSize=1;arcSize=20;verticalAlign=middle;align=center;whiteSpace=wrap;" vertex="1" parent="5piQsOcuY-1Kh9B8N4Zf-1">
          <mxGeometry x="265" y="920" width="160" height="50" as="geometry" />
        </mxCell>
        <mxCell id="JgzR4EuEWaY0TFpw7oFY-8" value="*" style="text;resizeWidth=0;resizeHeight=0;points=[];part=1;verticalAlign=middle;align=center;html=1;" vertex="1" parent="JgzR4EuEWaY0TFpw7oFY-7">
          <mxGeometry x="1" y="0.5" width="20" height="20" relative="1" as="geometry">
            <mxPoint x="-20" y="-10" as="offset" />
          </mxGeometry>
        </mxCell>
        <mxCell id="JgzR4EuEWaY0TFpw7oFY-20" value="" style="edgeStyle=orthogonalEdgeStyle;rounded=0;orthogonalLoop=1;jettySize=auto;html=1;" edge="1" parent="5piQsOcuY-1Kh9B8N4Zf-1" source="JgzR4EuEWaY0TFpw7oFY-10" target="JgzR4EuEWaY0TFpw7oFY-11">
          <mxGeometry relative="1" as="geometry" />
        </mxCell>
        <mxCell id="JgzR4EuEWaY0TFpw7oFY-21" value="" style="edgeStyle=orthogonalEdgeStyle;rounded=0;orthogonalLoop=1;jettySize=auto;html=1;" edge="1" parent="5piQsOcuY-1Kh9B8N4Zf-1" source="JgzR4EuEWaY0TFpw7oFY-10" target="lLy0GE4KPFu8VsCluHGw-12">
          <mxGeometry relative="1" as="geometry" />
        </mxCell>
        <mxCell id="JgzR4EuEWaY0TFpw7oFY-10" value="Чи PacMan зіткнувся з привидом?" style="rhombus;" vertex="1" parent="5piQsOcuY-1Kh9B8N4Zf-1">
          <mxGeometry x="292.5" y="1010" width="105" height="90" as="geometry" />
        </mxCell>
        <mxCell id="JgzR4EuEWaY0TFpw7oFY-23" value="" style="edgeStyle=orthogonalEdgeStyle;rounded=0;orthogonalLoop=1;jettySize=auto;html=1;" edge="1" parent="5piQsOcuY-1Kh9B8N4Zf-1" source="JgzR4EuEWaY0TFpw7oFY-11" target="JgzR4EuEWaY0TFpw7oFY-12">
          <mxGeometry relative="1" as="geometry" />
        </mxCell>
        <mxCell id="JgzR4EuEWaY0TFpw7oFY-11" value="Чи всі бонуси зібрано?" style="rhombus;" vertex="1" parent="5piQsOcuY-1Kh9B8N4Zf-1">
          <mxGeometry x="292.5" y="1149" width="105" height="90" as="geometry" />
        </mxCell>
        <mxCell id="JgzR4EuEWaY0TFpw7oFY-26" style="edgeStyle=orthogonalEdgeStyle;rounded=0;orthogonalLoop=1;jettySize=auto;html=1;entryX=0.5;entryY=1;entryDx=0;entryDy=0;" edge="1" parent="5piQsOcuY-1Kh9B8N4Zf-1" source="JgzR4EuEWaY0TFpw7oFY-12" target="lLy0GE4KPFu8VsCluHGw-6">
          <mxGeometry relative="1" as="geometry" />
        </mxCell>
        <mxCell id="JgzR4EuEWaY0TFpw7oFY-12" value="&lt;span style=&quot;text-wrap-mode: nowrap;&quot;&gt;Завершення гри виграшем&lt;/span&gt;" style="html=1;dashed=0;rounded=1;absoluteArcSize=1;arcSize=20;verticalAlign=middle;align=center;whiteSpace=wrap;" vertex="1" parent="5piQsOcuY-1Kh9B8N4Zf-1">
          <mxGeometry x="505" y="1169" width="160" height="50" as="geometry" />
        </mxCell>
        <mxCell id="JgzR4EuEWaY0TFpw7oFY-13" value="*" style="text;resizeWidth=0;resizeHeight=0;points=[];part=1;verticalAlign=middle;align=center;html=1;" vertex="1" parent="JgzR4EuEWaY0TFpw7oFY-12">
          <mxGeometry x="1" y="0.5" width="20" height="20" relative="1" as="geometry">
            <mxPoint x="-20" y="-10" as="offset" />
          </mxGeometry>
        </mxCell>
        <mxCell id="JgzR4EuEWaY0TFpw7oFY-18" style="edgeStyle=orthogonalEdgeStyle;rounded=0;orthogonalLoop=1;jettySize=auto;html=1;exitX=0.5;exitY=1;exitDx=0;exitDy=0;" edge="1" parent="5piQsOcuY-1Kh9B8N4Zf-1" source="JgzR4EuEWaY0TFpw7oFY-7" target="JgzR4EuEWaY0TFpw7oFY-7">
          <mxGeometry relative="1" as="geometry" />
        </mxCell>
      </root>
    </mxGraphModel>
  </diagram>
</mxfile>
